<?xml version="1.0" encoding="utf-8"?>
<!-- Generator: Adobe Illustrator 15.1.0, SVG Export Plug-In . SVG Version: 6.00 Build 0)  -->
<!DOCTYPE svg PUBLIC "-//W3C//DTD SVG 1.1//EN" "http://www.w3.org/Graphics/SVG/1.1/DTD/svg11.dtd">
<svg version="1.1" id="Layer_1" xmlns="http://www.w3.org/2000/svg" xmlns:xlink="http://www.w3.org/1999/xlink" x="0px" y="0px"
	 width="125px" height="176px" viewBox="0 0 125 176" enable-background="new 0 0 125 176" xml:space="preserve">
<g>
	<path fill="#6F727B" d="M98.748,61.536c9.079-4.547,15.256-12.989,15.256-23.385c0-24.186-21.92-29.384-41.886-29.058H6.427v115.92
		h67.145c24.849,0,45.141-8.443,45.141-36.048C118.712,75.813,111.085,65.104,98.748,61.536z M82.684,50.236
		c-0.032,0-0.063-0.005-0.095-0.005L74.39,78.056c2.817,1.654,4.719,4.689,4.719,8.184c0,5.251-4.276,9.529-9.528,9.529
		c-5.253,0-9.527-4.277-9.527-9.529c0-2.351,0.856-4.493,2.263-6.149L50.079,62.999c-1.47,0.64-3.08,1.012-4.785,1.012
		c-0.504,0-0.992-0.047-1.476-0.111l-6.63,25.822c2.906,1.662,4.869,4.785,4.869,8.372c0,5.328-4.318,9.647-9.646,9.647
		s-9.646-4.319-9.646-9.647s4.317-9.646,9.646-9.646c0.228,0,0.449,0.018,0.674,0.033l6.638-25.85
		c-3.854-2.018-6.487-6.047-6.487-10.69c0-6.644,5.401-12.057,12.059-12.057c6.643,0,12.057,5.413,12.057,12.057
		c0,3.409-1.426,6.474-3.709,8.67l12.117,16.925c1.177-0.516,2.456-0.823,3.821-0.823c0.245,0,0.486,0.014,0.727,0.033l8.171-27.729
		c-2.218-1.398-3.696-3.864-3.696-6.682c0-4.363,3.538-7.901,7.902-7.901c4.361,0,7.9,3.538,7.9,7.901S87.045,50.236,82.684,50.236z
		"/>
	<path fill="#6F727B" d="M6.288,146.786h8.686c1.957,0,3.286,0.314,4.461,1.146c1.226,0.889,2.138,2.324,2.138,4.33
		c0,1.854-0.989,3.184-2.478,3.914v0.051c2.452,0.367,3.861,2.375,3.861,4.773c0,3.234-2.635,5.607-5.973,5.607H6.288V146.786z
		 M15.443,155.421c2.034,0,3.625-1.176,3.625-3.105c0-1.016-0.365-1.852-0.99-2.426c-0.652-0.6-1.67-0.912-3.13-0.912H8.792v6.443
		H15.443z M16.122,164.417c3.364,0,4.328-1.59,4.328-3.391c0-1.564-0.964-3.416-4.328-3.416h-7.33v6.807H16.122z"/>
	<path fill="#6F727B" d="M34.023,157.507c0-2.244-2.241-2.74-4.068-2.74c-1.278,0-2.479,0.314-3.757,0.939l-1.017-1.955
		c2.061-0.861,3.678-1.045,4.903-1.045c3.261,0,6.287,1.383,6.287,4.617v9.285h-2.19v-1.461c-1.202,1.254-2.531,1.773-4.331,1.773
		c-3.313,0-5.92-1.852-5.92-4.877c0-2.477,2.112-4.668,5.894-4.668c1.436,0,2.947,0.418,4.199,1.539V157.507z M30.268,159.437
		c-2.868,0-3.834,1.383-3.834,2.713s0.966,2.711,3.834,2.711c2.87,0,3.835-1.381,3.835-2.711S33.138,159.437,30.268,159.437z"/>
	<path fill="#6F727B" d="M38.204,146.786h2.347v8.373h0.054c1.122-1.617,3.156-2.453,5.163-2.453c3.834,0,7.068,3.053,7.068,6.965
		c0,4.279-3.392,7.25-7.173,7.25c-2.347,0-4.068-0.99-5.059-2.398h-0.054v2.086h-2.347V146.786z M45.352,154.897
		c-2.558,0-4.801,2.191-4.801,4.93c0,2.713,2.191,4.902,4.879,4.902c2.478,0,4.903-1.902,4.903-5.031
		C50.333,157.429,48.532,154.897,45.352,154.897z"/>
	<path fill="#6F727B" d="M67.621,163.976c-1.825,2.033-3.756,2.945-6.129,2.945c-4.825,0-7.407-3.494-7.407-7.119
		c0-3.861,2.764-7.096,7.017-7.096c4.199,0,7.119,3.209,7.119,8.008H56.589c0.365,2.32,2.242,4.016,4.878,4.016
		c1.667,0,3.155-0.779,4.355-2.189L67.621,163.976z M65.561,158.786c-0.235-2.246-2.061-3.889-4.485-3.889
		c-2.871,0-4.252,2.035-4.486,3.889H65.561z"/>
	<path fill="#6F727B" d="M72.036,146.786v15.57c0,1.539,0.757,2.061,1.513,2.061h0.705v2.191h-0.966
		c-2.164,0-3.599-1.225-3.599-4.068v-15.754H72.036z"/>
	<path fill="#6F727B" d="M89.356,146.786h2.503v19.822h-2.348l-10.64-15.336h-0.054v15.336h-2.504v-19.822h2.347l10.643,15.336
		h0.053V146.786z"/>
	<path fill="#6F727B" d="M107.017,163.976c-1.826,2.033-3.755,2.945-6.127,2.945c-4.826,0-7.409-3.494-7.409-7.119
		c0-3.861,2.766-7.096,7.016-7.096c4.2,0,7.12,3.209,7.12,8.008H95.984c0.365,2.32,2.243,4.016,4.877,4.016
		c1.669,0,3.155-0.779,4.356-2.189L107.017,163.976z M104.957,158.786c-0.235-2.246-2.061-3.889-4.486-3.889
		c-2.869,0-4.253,2.035-4.486,3.889H104.957z"/>
	<path fill="#6F727B" d="M109.936,149.733h2.347v3.285h2.165v2.063h-2.165v8.346c0,0.73,0.234,0.99,1.146,0.99h1.07v2.164
		c-0.339,0.027-0.886,0.027-1.435,0.027c-2.399,0-3.129-0.834-3.129-2.922v-8.605h-1.878v-2.063h1.878V149.733z"/>
</g>
</svg>
