<?xml version="1.0" encoding="utf-8"?>
<!-- Generator: Adobe Illustrator 15.1.0, SVG Export Plug-In . SVG Version: 6.00 Build 0)  -->
<!DOCTYPE svg PUBLIC "-//W3C//DTD SVG 1.1//EN" "http://www.w3.org/Graphics/SVG/1.1/DTD/svg11.dtd">
<svg version="1.1" id="Layer_1" xmlns="http://www.w3.org/2000/svg" xmlns:xlink="http://www.w3.org/1999/xlink" x="0px" y="0px"
	 width="149.167px" height="172.243px" viewBox="0 0 149.167 172.243" enable-background="new 0 0 149.167 172.243"
	 xml:space="preserve">
<polygon fill="#585858" points="149.167,129.183 74.583,172.243 0,129.183 0,43.061 74.583,0 149.167,43.061 "/>
<path fill="none" stroke="#FFFFFF" stroke-width="7.9999" stroke-miterlimit="2.4142" d="M46.605,79.449
	c0.208,2.173,0.316,4.4,0.316,6.671c0,11.854-2.952,22.553-7.699,30.177"/>
<circle fill="none" stroke="#FFFFFF" stroke-width="7.9999" stroke-miterlimit="2.4142" cx="85.464" cy="86.121" r="25.137"/>
<path fill="none" stroke="#FFFFFF" stroke-width="7.9999" stroke-miterlimit="2.4142" d="M149.145,128.016
	c-13.882,0-25.137-18.757-25.137-41.896c0-23.137,11.255-41.894,25.137-41.894c0.008,0,0.015,0,0.022,0"/>
<path fill="none" stroke="#FFFFFF" stroke-width="7.9999" stroke-miterlimit="2.4142" d="M39.206,55.919
	c2.831,4.538,5.027,10.172,6.338,16.492"/>
<path fill="none" stroke="#FFFFFF" stroke-width="7.9999" stroke-miterlimit="2.4142" d="M0,98.681c0,0.002,0,0.006,0,0.008
	c0,6.942,5.627,12.568,12.569,12.568c6.942,0,12.568-5.626,12.568-12.568c0-6.939-5.626-12.568-12.568-12.568
	C5.627,86.121,0,80.495,0,73.553s5.627-12.569,12.569-12.569c6.938,0,12.563,5.622,12.568,12.559"/>
</svg>
